<svg width="99" height="48" viewBox="0 0 99 48" fill="none" xmlns="http://www.w3.org/2000/svg">
<path d="M51.3244 21.3519V7.42022H57.3548C58.602 7.42022 59.6768 7.62588 60.579 8.0372C61.4813 8.43524 62.1779 9.01242 62.6688 9.76871C63.1597 10.525 63.4052 11.4272 63.4052 12.4754C63.4052 13.5104 63.1597 14.406 62.6688 15.1623C62.1779 15.9186 61.4813 16.5024 60.579 16.9137C59.6768 17.3117 58.602 17.5108 57.3548 17.5108H53.1156L54.5486 16.0579V21.3519H51.3244ZM54.5486 16.4161L53.1156 14.8836H57.1757C58.1708 14.8836 58.9139 14.6713 59.4048 14.2468C59.8957 13.8222 60.1412 13.2317 60.1412 12.4754C60.1412 11.7059 59.8957 11.1088 59.4048 10.6842C58.9139 10.2596 58.1708 10.0473 57.1757 10.0473H53.1156L54.5486 8.51485V16.4161ZM65.4686 21.3519V10.6444H68.4341V13.6696L68.0162 12.7939C68.3346 12.0376 68.8454 11.4671 69.5486 11.0823C70.2519 10.6842 71.1077 10.4852 72.1161 10.4852V13.3511C71.9834 13.3379 71.864 13.3312 71.7578 13.3312C71.6517 13.318 71.5389 13.3113 71.4195 13.3113C70.5703 13.3113 69.8804 13.5568 69.3496 14.0477C68.8322 14.5254 68.5734 15.2751 68.5734 16.2967V21.3519H65.4686ZM78.9794 21.5111C77.8384 21.5111 76.8234 21.2723 75.9344 20.7947C75.0587 20.317 74.3621 19.6669 73.8446 18.8442C73.3404 18.0083 73.0883 17.0596 73.0883 15.9982C73.0883 14.9234 73.3404 13.9748 73.8446 13.1521C74.3621 12.3162 75.0587 11.6661 75.9344 11.2017C76.8234 10.724 77.8384 10.4852 78.9794 10.4852C80.1073 10.4852 81.1156 10.724 82.0046 11.2017C82.8936 11.6661 83.5902 12.3096 84.0944 13.1322C84.5986 13.9549 84.8507 14.9102 84.8507 15.9982C84.8507 17.0596 84.5986 18.0083 84.0944 18.8442C83.5902 19.6669 82.8936 20.317 82.0046 20.7947C81.1156 21.2723 80.1073 21.5111 78.9794 21.5111ZM78.9794 18.9636C79.4969 18.9636 79.9613 18.8442 80.3726 18.6054C80.7839 18.3666 81.109 18.0282 81.3478 17.5904C81.5867 17.1392 81.7061 16.6085 81.7061 15.9982C81.7061 15.3746 81.5867 14.8438 81.3478 14.406C81.109 13.9681 80.7839 13.6298 80.3726 13.391C79.9613 13.1521 79.4969 13.0327 78.9794 13.0327C78.462 13.0327 77.9976 13.1521 77.5863 13.391C77.175 13.6298 76.8433 13.9681 76.5912 14.406C76.3523 14.8438 76.2329 15.3746 76.2329 15.9982C76.2329 16.6085 76.3523 17.1392 76.5912 17.5904C76.8433 18.0282 77.175 18.3666 77.5863 18.6054C77.9976 18.8442 78.462 18.9636 78.9794 18.9636ZM89.5402 21.3519L85.0422 10.6444H88.2465L91.9882 19.8592H90.396L94.277 10.6444H97.2623L92.7445 21.3519H89.5402ZM51.3244 39.3519V25.4202H54.5486V36.7248H61.5343V39.3519H51.3244ZM69.7624 39.3519V37.2622L69.5634 36.8044V33.0628C69.5634 32.3993 69.3578 31.8819 68.9464 31.5104C68.5484 31.1389 67.9314 30.9531 67.0955 30.9531C66.525 30.9531 65.9611 31.046 65.4038 31.2317C64.8598 31.4042 64.3954 31.6431 64.0106 31.9482L62.8961 29.7789C63.4799 29.3675 64.1831 29.0491 65.0058 28.8235C65.8284 28.598 66.6643 28.4852 67.5135 28.4852C69.1455 28.4852 70.4126 28.87 71.3148 29.6395C72.2171 30.4091 72.6682 31.6099 72.6682 33.2419V39.3519H69.7624ZM66.4984 39.5111C65.6625 39.5111 64.9461 39.3718 64.349 39.0932C63.7519 38.8013 63.2942 38.4099 62.9757 37.919C62.6573 37.428 62.4981 36.8774 62.4981 36.2671C62.4981 35.6302 62.6506 35.0729 62.9558 34.5952C63.2742 34.1176 63.7718 33.7461 64.4485 33.4807C65.1252 33.2021 66.0075 33.0628 67.0955 33.0628H69.9416V34.8739H67.4339C66.7041 34.8739 66.1999 34.9933 65.9213 35.2321C65.6559 35.471 65.5232 35.7695 65.5232 36.1277C65.5232 36.5258 65.6758 36.8442 65.981 37.0831C66.2994 37.3086 66.7306 37.4214 67.2746 37.4214C67.7921 37.4214 68.2565 37.302 68.6678 37.0631C69.0791 36.8111 69.3777 36.4462 69.5634 35.9685L70.0411 37.4015C69.8155 38.0914 69.4042 38.6155 68.8071 38.9738C68.2101 39.332 67.4405 39.5111 66.4984 39.5111ZM81.8072 39.5111C80.8651 39.5111 80.0557 39.3121 79.3791 38.9141C78.7024 38.516 78.1849 37.9123 77.8267 37.103C77.4684 36.2803 77.2893 35.2454 77.2893 33.9982C77.2893 32.7377 77.4751 31.7028 77.8466 30.8934C78.2313 30.084 78.7621 29.4803 79.4388 29.0823C80.1154 28.6842 80.9049 28.4852 81.8072 28.4852C82.8155 28.4852 83.7178 28.7108 84.5139 29.1619C85.3232 29.613 85.9601 30.2499 86.4245 31.0725C86.9022 31.8951 87.141 32.8704 87.141 33.9982C87.141 35.1127 86.9022 36.0813 86.4245 36.9039C85.9601 37.7266 85.3232 38.3701 84.5139 38.8345C83.7178 39.2856 82.8155 39.5111 81.8072 39.5111ZM75.4782 39.3519V24.5843H78.583V30.8138L78.3839 33.9783L78.4436 37.1627V39.3519H75.4782ZM81.2698 36.9636C81.7872 36.9636 82.245 36.8442 82.6431 36.6054C83.0544 36.3666 83.3794 36.0282 83.6183 35.5904C83.8704 35.1392 83.9964 34.6085 83.9964 33.9982C83.9964 33.3746 83.8704 32.8438 83.6183 32.406C83.3794 31.9681 83.0544 31.6298 82.6431 31.391C82.245 31.1521 81.7872 31.0327 81.2698 31.0327C80.7523 31.0327 80.2879 31.1521 79.8766 31.391C79.4653 31.6298 79.1402 31.9681 78.9014 32.406C78.6626 32.8438 78.5432 33.3746 78.5432 33.9982C78.5432 34.6085 78.6626 35.1392 78.9014 35.5904C79.1402 36.0282 79.4653 36.3666 79.8766 36.6054C80.2879 36.8442 80.7523 36.9636 81.2698 36.9636ZM92.8218 39.5111C91.9062 39.5111 91.0239 39.405 90.1747 39.1927C89.3388 38.9671 88.6754 38.6885 88.1845 38.3568L89.2194 36.1277C89.7103 36.4329 90.2875 36.685 90.9509 36.884C91.6276 37.0698 92.291 37.1627 92.9412 37.1627C93.6577 37.1627 94.1618 37.0764 94.4538 36.9039C94.7589 36.7314 94.9115 36.4926 94.9115 36.1874C94.9115 35.9353 94.7921 35.7496 94.5533 35.6302C94.3277 35.4975 94.0225 35.398 93.6378 35.3316C93.253 35.2653 92.8284 35.199 92.364 35.1326C91.9129 35.0663 91.4551 34.98 90.9907 34.8739C90.5263 34.7545 90.1018 34.582 89.717 34.3564C89.3322 34.1309 89.0204 33.8257 88.7816 33.4409C88.556 33.0561 88.4432 32.5586 88.4432 31.9482C88.4432 31.2715 88.6356 30.6745 89.0204 30.157C89.4184 29.6395 89.989 29.2349 90.732 28.943C91.475 28.6378 92.364 28.4852 93.3989 28.4852C94.1287 28.4852 94.8717 28.5648 95.628 28.724C96.3843 28.8832 97.0145 29.1154 97.5187 29.4206L96.4838 31.6298C95.9663 31.3246 95.4422 31.119 94.9115 31.0128C94.394 30.8934 93.8898 30.8337 93.3989 30.8337C92.709 30.8337 92.2048 30.9266 91.8863 31.1123C91.5679 31.2981 91.4087 31.5369 91.4087 31.8288C91.4087 32.0942 91.5215 32.2932 91.747 32.4259C91.9858 32.5586 92.2977 32.6647 92.6824 32.7443C93.0672 32.8239 93.4852 32.8969 93.9363 32.9632C94.4007 33.0163 94.8651 33.1026 95.3295 33.222C95.7938 33.3414 96.2118 33.5139 96.5833 33.7394C96.9681 33.9517 97.2799 34.2503 97.5187 34.6351C97.7576 35.0066 97.877 35.4975 97.877 36.1078C97.877 36.7712 97.6779 37.3617 97.2799 37.8791C96.8818 38.3833 96.3047 38.7814 95.5484 39.0733C94.8054 39.3652 93.8965 39.5111 92.8218 39.5111Z" fill="#2353A5"/>
<path fill-rule="evenodd" clip-rule="evenodd" d="M21.8824 0.239626C21.33 -0.0798749 20.6492 -0.0798752 20.0968 0.239624L0.892807 11.3454C0.340331 11.6649 0 12.2553 0 12.8943V35.1058C0 35.7448 0.340331 36.3353 0.892807 36.6548L8.66966 41.1521V30.3006V23.967V18.6325C8.66966 18.0116 8.99104 17.4353 9.51872 17.1096L14.828 13.8335L20.0498 10.6113C20.6241 10.2569 21.3488 10.2569 21.923 10.6113L27.1447 13.8335L32.4541 17.1096C32.9818 17.4353 33.3033 18.0116 33.3033 18.6325V23.967V29.3017C33.3033 29.9224 32.9818 30.4989 32.4541 30.8245L27.1447 34.1006L21.923 37.3228C21.4227 37.6314 20.9198 37.1215 20.9198 36.533V32.3082C20.9198 31.7324 21.4335 31.2913 21.923 30.9894L26.2957 28.291C26.8235 27.9655 27.1447 27.3891 27.1447 26.7683V22.4326C27.1447 21.8118 26.8235 21.2353 26.2957 20.9097L21.923 18.2115C21.3488 17.8571 20.6241 17.8571 20.0498 18.2115L15.6772 20.9097C15.1494 21.2353 14.828 21.8118 14.828 22.4326V25.5777C14.828 25.5791 14.8269 25.5802 14.8255 25.5802C14.8249 25.5802 14.8244 25.5805 14.824 25.5808C14.8234 25.5813 14.8231 25.5819 14.8231 25.5828V38.8129C14.8231 38.8143 14.8241 38.8154 14.8255 38.8154C14.8269 38.8154 14.828 38.8165 14.828 38.8179V44.4686C14.828 44.5492 14.8229 44.628 14.813 44.7049L20.0968 47.7604C20.6492 48.0799 21.33 48.0799 21.8824 47.7604L41.0863 36.6548C41.6389 36.3353 41.9791 35.7448 41.9791 35.1058V12.8943C41.9791 12.2553 41.6389 11.6649 41.0863 11.3454L21.8824 0.239626Z" fill="#2353A5"/>
</svg>
