<svg width="32" height="37" viewBox="0 0 32 37" fill="none" xmlns="http://www.w3.org/2000/svg">
<path d="M19.3352 16.6365C18.2935 16.6365 17.4711 17.532 17.4711 18.6468C17.4711 19.7615 18.3118 20.657 19.3352 20.657C20.3769 20.657 21.1993 19.7615 21.1993 18.6468C21.1993 17.532 20.3586 16.6365 19.3352 16.6365ZM12.6647 16.6365C11.623 16.6365 10.8007 17.532 10.8007 18.6468C10.8007 19.7615 11.6413 20.657 12.6647 20.657C13.7064 20.657 14.5288 19.7615 14.5288 18.6468C14.5471 17.532 13.7064 16.6365 12.6647 16.6365Z" fill="#B2C5F0"/>
<path d="M28.2353 0.526855H3.74643C1.68132 0.526855 0 2.20818 0 4.27329V28.7621C0 30.8273 1.68132 32.5086 3.74643 32.5086H24.4706L23.502 29.1642L25.8412 31.3207L28.0525 33.3492L32 36.7667V4.27329C31.9817 2.20818 30.3004 0.526855 28.2353 0.526855ZM21.181 24.1933C21.181 24.1933 20.5231 23.4075 19.9749 22.7313C22.3689 22.0551 23.2827 20.5748 23.2827 20.5748C22.5334 21.0683 21.8207 21.4155 21.181 21.6531C20.2673 22.0368 19.3901 22.2744 18.5311 22.4389C16.7767 22.7679 15.1685 22.6765 13.7978 22.4206C12.7561 22.2196 11.8607 21.9455 11.1114 21.6348C10.691 21.4703 10.2342 21.2693 9.77727 21.0134C9.72244 20.9769 9.66762 20.9586 9.61279 20.9221C9.57624 20.9038 9.55797 20.8855 9.53969 20.8855C9.21074 20.7028 9.02798 20.5748 9.02798 20.5748C9.02798 20.5748 9.9052 22.0186 12.2262 22.713C11.6779 23.4075 11.0017 24.2116 11.0017 24.2116C6.96288 24.0837 5.42775 21.4521 5.42775 21.4521C5.42775 15.6222 8.05939 10.8889 8.05939 10.8889C10.691 8.9335 13.1765 8.98832 13.1765 8.98832L13.3592 9.20762C10.0697 10.1397 8.5711 11.5834 8.5711 11.5834C8.5711 11.5834 8.97316 11.3641 9.64934 11.0717C11.6048 10.2128 13.1582 9.99346 13.7978 9.92036C13.9075 9.9021 13.9989 9.88381 14.1085 9.88381C15.2233 9.73761 16.4843 9.70105 17.8001 9.84726C19.5363 10.0483 21.4003 10.56 23.301 11.5834C23.301 11.5834 21.8572 10.2128 18.7504 9.28072L19.0063 8.98832C19.0063 8.98832 21.51 8.9335 24.1234 10.8889C24.1234 10.8889 26.755 15.6222 26.755 21.4521C26.755 21.4338 25.2199 24.0654 21.181 24.1933V24.1933Z" fill="#B2C5F0"/>
</svg>
