<svg width="310" height="160" viewBox="0 0 310 160" fill="none" xmlns="http://www.w3.org/2000/svg">
<path d="M151.809 70.0391V31.2192H173.271C179.926 31.2192 184.862 35.6003 184.862 41.6451C184.862 44.8062 183.364 47.4126 180.869 48.91V49.0209C184.251 50.5737 186.303 53.9011 186.303 57.9495C186.303 66.1016 181.479 70.0391 171.552 70.0391H151.809ZM160.294 46.7472H171.885C174.824 46.7472 176.377 45.3053 176.377 42.6988C176.377 40.0923 174.824 38.6504 171.885 38.6504H160.294V46.7472ZM160.294 62.6078H172.772C176.266 62.6078 177.818 61.055 177.818 57.894C177.818 55.0102 176.099 53.3465 172.827 53.3465H160.294V62.6078ZM190.668 70.0391V29.5555H198.876V70.0391H190.668ZM203.261 55.343C203.094 46.7472 210.47 39.6487 219.842 39.815C229.436 39.815 236.424 46.6362 236.424 55.343C236.424 64.0497 229.436 70.8709 219.842 70.8709C210.47 71.0373 203.094 63.9388 203.261 55.343ZM228.216 55.343C228.216 50.5182 224.889 47.0244 219.842 47.0244C214.796 47.0244 211.468 50.5182 211.468 55.343C211.468 60.1677 214.796 63.6615 219.842 63.6615C224.889 63.6615 228.216 60.1677 228.216 55.343ZM239.708 55.343C239.542 46.6362 246.918 39.6487 255.957 39.815C259.673 39.815 262.945 40.7578 265.662 42.6433C268.38 44.5289 270.21 47.0244 271.042 50.13L263.389 52.3483C262.279 49.0209 259.673 47.0244 255.957 47.0244C251.243 47.0244 247.916 50.4073 247.916 55.343C247.916 60.2786 251.243 63.6615 255.957 63.6615C259.673 63.6615 262.168 61.8869 263.389 58.3377L271.042 60.5559C270.21 63.6615 268.38 66.1571 265.662 68.0426C262.945 69.9281 259.673 70.8709 255.957 70.8709C246.918 71.0373 239.542 64.0497 239.708 55.343ZM275.154 70.0391V29.5555H283.362V52.4592H283.473L296.727 40.6469H308.207L294.398 52.6256L308.761 70.0391H298.724L288.908 57.6167H288.797L283.362 62.2196V70.0391H275.154ZM165.452 121.039L147.705 82.2192H157.299L169.666 110.225H169.777L182.089 82.2192H191.738L173.937 121.039H165.452ZM189.622 113.109C189.622 107.618 193.282 104.79 202.544 103.515C207.923 102.794 209.531 102.017 209.531 100.52C209.531 98.579 207.479 97.4144 204.318 97.4144C200.547 97.4144 197.719 99.4109 196.998 102.683L189.234 101.075C190.343 95.0852 196.499 90.815 204.096 90.815C212.692 90.815 218.016 95.1961 218.016 102.35V121.039H210.64V117.823H210.529C208.755 120.318 204.984 121.871 200.603 121.871C194.114 121.871 189.622 118.322 189.622 113.109ZM210.197 110.114V106.62H210.086C209.365 107.674 207.812 108.284 203.819 109.005C198.994 109.892 197.275 110.835 197.275 112.554C197.275 114.329 198.717 115.105 201.823 115.105C206.537 115.105 210.197 112.942 210.197 110.114ZM222.717 108.45V91.6469H230.925V107.23C230.925 111.889 233.476 114.44 238.134 114.44C242.626 114.44 245.787 111.445 245.787 107.23V91.6469H253.995V121.039H246.065V118.266H245.954C243.458 120.651 240.131 121.871 236.027 121.871C227.653 121.871 222.717 116.935 222.717 108.45ZM259.502 121.039V80.5555H267.709V121.039H259.502ZM295.386 98.6345H285.903V111.057C285.903 112.887 286.513 113.441 288.898 113.441H294.277V121.039H288.066C280.69 121.039 277.696 118.155 277.696 111.556V98.6345H270.763V91.6469H277.696V84.2711H285.903V91.6469H295.386V98.6345Z" fill="url(#paint0_linear_765_37)"/>
<path fill-rule="evenodd" clip-rule="evenodd" d="M70.0953 12.53C68.7608 11.7595 67.1167 11.7595 65.7822 12.53L10.8648 44.2366C9.53032 45.007 8.70825 46.4309 8.70825 47.9718V111.385C8.70825 112.926 9.53033 114.35 10.8648 115.12L65.7822 146.827C67.1167 147.597 68.7608 147.597 70.0953 146.827L125.013 115.12C126.347 114.35 127.169 112.926 127.169 111.385V81.8981H108.353V99.8677C108.353 100.154 108.2 100.418 107.952 100.561L68.4992 123.34C68.2514 123.483 67.946 123.483 67.6982 123.34L28.2452 100.561C27.9974 100.418 27.8447 100.154 27.8447 99.8676V54.3112C27.8447 54.0251 27.9974 53.7607 28.2452 53.6176L67.6982 30.8394C67.946 30.6963 68.2514 30.6963 68.4992 30.8394L107.952 53.6176C108.2 53.7607 108.353 54.0251 108.353 54.3112V73.5635H127.169V47.9718C127.169 46.4309 126.347 45.007 125.013 44.2366L70.0953 12.53ZM100.143 73.5635V58.5889L68.0987 40.0883L36.0547 58.5889V95.59L68.0987 114.091L100.143 95.59V81.8981H83.9226V85.7629C83.9226 86.049 83.7699 86.3135 83.5221 86.4565L68.4991 95.1301C68.2513 95.2732 67.946 95.2732 67.6981 95.1301L52.6751 86.4565C52.4273 86.3135 52.2746 86.049 52.2746 85.7629V68.4158C52.2746 68.1296 52.4273 67.8652 52.6751 67.7221L67.6981 59.0486C67.946 58.9055 68.2513 58.9055 68.4991 59.0486L83.5221 67.7221C83.7699 67.8652 83.9226 68.1296 83.9226 68.4158V73.5635H100.143Z" fill="url(#paint1_linear_765_37)"/>
<defs>
<linearGradient id="paint0_linear_765_37" x1="228.983" y1="26.0391" x2="228.983" y2="128.039" gradientUnits="userSpaceOnUse">
<stop stop-color="#2A5EB4"/>
<stop offset="1" stop-color="#1D4A99"/>
</linearGradient>
<linearGradient id="paint1_linear_765_37" x1="67.9388" y1="11.2852" x2="67.9388" y2="148.072" gradientUnits="userSpaceOnUse">
<stop stop-color="#2A5EB3"/>
<stop offset="1" stop-color="#1F4C9B"/>
</linearGradient>
</defs>
</svg>
