<svg width="35" height="40" viewBox="0 0 35 40" fill="none" xmlns="http://www.w3.org/2000/svg">
<path fill-rule="evenodd" clip-rule="evenodd" d="M18.2404 0.198168C18.0132 0.0683087 17.7561 0 17.4945 0C17.2329 0 16.9758 0.0683087 16.7487 0.198168L0.745848 9.44448C0.519588 9.57383 0.331476 9.7606 0.200516 9.98593C0.0695556 10.2113 0.000387588 10.4672 0 10.7278L0 29.2204C0.000387588 29.481 0.0695556 29.7369 0.200516 29.9623C0.331476 30.1876 0.519588 30.3744 0.745848 30.5037L7.22814 34.2549V15.51C7.23169 15.2596 7.29776 15.014 7.42036 14.7957C7.54295 14.5773 7.71818 14.393 7.93012 14.2596L12.3175 11.5394L16.7048 8.85219C16.9388 8.70751 17.2084 8.63087 17.4835 8.63087C17.7587 8.63087 18.0283 8.70751 18.2623 8.85219L22.6496 11.5394L27.037 14.2596C27.252 14.395 27.4292 14.5827 27.552 14.8053C27.6748 15.0278 27.7391 15.2778 27.739 15.5319V24.4053C27.7412 24.6598 27.6777 24.9106 27.5548 25.1335C27.4318 25.3564 27.2535 25.5438 27.037 25.6776L22.6496 28.4088L18.2623 31.085C17.8455 31.3483 17.4287 30.9205 17.4287 30.4269V26.9171C17.4647 26.679 17.5598 26.4539 17.7055 26.2622C17.8511 26.0706 18.0426 25.9186 18.2623 25.8202L21.9367 23.5498C22.1517 23.4144 22.3289 23.2266 22.4517 23.0041C22.5745 22.7816 22.6388 22.5316 22.6387 22.2775V18.6469C22.6363 18.3978 22.5707 18.1533 22.4479 17.9365C22.3251 17.7197 22.1492 17.5377 21.9367 17.4075L18.2842 15.2138C18.0503 15.0692 17.7806 14.9925 17.5055 14.9925C17.2304 14.9925 16.9607 15.0692 16.7267 15.2138L13.0852 17.4075C12.868 17.5342 12.6871 17.7149 12.5603 17.932C12.4335 18.1492 12.3649 18.3955 12.3613 18.6469V21.2684V32.2367V36.9312C12.3668 36.9969 12.3668 37.0629 12.3613 37.1286L16.7487 39.6732C16.9758 39.8031 17.2329 39.8714 17.4945 39.8714C17.7561 39.8714 18.0132 39.8031 18.2404 39.6732L34.2542 30.4269C34.4804 30.2976 34.6685 30.1108 34.7995 29.8855C34.9304 29.6602 34.9996 29.4043 35 29.1436V10.7278C34.9996 10.4672 34.9304 10.2113 34.7995 9.98593C34.6685 9.7606 34.4804 9.57383 34.2542 9.44448L18.2404 0.198168Z" fill="white"/>
</svg>
