<svg width="32" height="33" viewBox="0 0 32 33" fill="none" xmlns="http://www.w3.org/2000/svg">
<path d="M29.1053 0.646729H2.89466C1.296 0.646729 0 1.94273 0 3.54139V29.752C0 31.3507 1.296 32.6467 2.89466 32.6467H29.1053C30.704 32.6467 32 31.3507 32 29.752V3.54139C32 1.94273 30.704 0.646729 29.1053 0.646729ZM9.90216 28.2776C9.90216 28.7429 9.52503 29.12 9.05977 29.12H5.47393C5.00867 29.12 4.63154 28.7429 4.63154 28.2776V13.2459C4.63154 12.7807 5.00867 12.4035 5.47393 12.4035H9.05977C9.52503 12.4035 9.90216 12.7807 9.90216 13.2459V28.2776ZM7.26685 10.9866C5.38547 10.9866 3.86027 9.46139 3.86027 7.58001C3.86027 5.69862 5.38547 4.17343 7.26685 4.17343C9.14823 4.17343 10.6734 5.69862 10.6734 7.58001C10.6734 9.46139 9.14831 10.9866 7.26685 10.9866ZM28.6417 28.3455C28.6417 28.7732 28.2949 29.12 27.8671 29.12H24.0193C23.5915 29.12 23.2447 28.7732 23.2447 28.3455V21.2948C23.2447 20.243 23.5533 16.6857 20.496 16.6857C18.1246 16.6857 17.6436 19.1205 17.547 20.2132V28.3455C17.547 28.7732 17.2003 29.12 16.7724 29.12H13.0509C12.6232 29.12 12.2764 28.7732 12.2764 28.3455V13.1781C12.2764 12.7504 12.6232 12.4035 13.0509 12.4035H16.7724C17.2002 12.4035 17.547 12.7504 17.547 13.1781V14.4895C18.4263 13.1699 19.7331 12.1513 22.5155 12.1513C28.6769 12.1513 28.6417 17.9076 28.6417 21.0704V28.3455Z" fill="#B2C5F0"/>
</svg>
