<svg width="310" height="160" viewBox="0 0 310 160" fill="none" xmlns="http://www.w3.org/2000/svg">
<path d="M262.286 98.5671H252.672V111.161C252.672 113.016 253.291 113.579 255.708 113.579H261.162V121.281H254.865C247.387 121.281 244.351 118.358 244.351 111.667V98.5671H237.323V91.483H244.351V84.0054H252.672V91.483H262.286V98.5671Z" fill="url(#paint0_linear_748_204)"/>
<path d="M204.137 106.438C204.137 97.274 210.94 90.6396 220.33 90.6396C230.225 90.6396 236.522 97.6113 236.522 106.663V109.025H212.346C212.627 112.904 215.832 115.378 220.779 115.378C224.378 115.378 226.964 114.028 229.944 110.936L235.116 116.109C231.518 119.988 227.076 122.125 220.836 122.125C210.434 122.125 204.137 115.884 204.137 106.438ZM212.458 103.177H228.426C228.032 99.6353 224.94 97.3864 220.498 97.3864C216 97.3864 212.908 99.6353 212.458 103.177Z" fill="url(#paint1_linear_748_204)"/>
<path d="M162.078 121.281V81.9253H171.467L189.908 109.193H190.021V81.9253H198.623V121.281H189.29L170.792 93.957H170.68V121.281H162.078Z" fill="url(#paint2_linear_748_204)"/>
<path d="M270.111 69.2816L255.381 39.4834H264.545L273.878 59.6112H273.991L283.324 39.4834H292.544L277.701 69.2816H270.111Z" fill="url(#paint3_linear_748_204)"/>
<path d="M222.86 54.3821C222.691 45.6675 230.169 38.471 239.671 38.6396C249.397 38.6396 256.481 45.5551 256.481 54.3821C256.481 63.2091 249.397 70.1245 239.671 70.1245C230.169 70.2932 222.691 63.0966 222.86 54.3821ZM248.16 54.3821C248.16 49.4907 244.787 45.9486 239.671 45.9486C234.554 45.9486 231.181 49.4907 231.181 54.3821C231.181 59.2735 234.554 62.8155 239.671 62.8155C244.787 62.8155 248.16 59.2735 248.16 54.3821Z" fill="url(#paint4_linear_748_204)"/>
<path d="M200.981 69.2813V39.4831H208.796V42.3505H208.908C211.101 40.0454 214.024 38.9209 217.679 38.9209C219.197 38.9209 220.827 39.202 222.57 39.708L220.827 47.1857C219.309 46.7921 217.904 46.5672 216.498 46.5672C211.944 46.5672 209.302 49.6033 209.302 55.6754V69.2813H200.981Z" fill="url(#paint5_linear_748_204)"/>
<path d="M162.078 69.2814V29.9253H182.768C191.145 29.9253 197.33 34.9854 197.33 42.8004C197.33 50.784 191.314 55.6754 182.768 55.6754H170.68V69.2814H162.078ZM170.68 48.1415H182.262C186.085 48.1415 188.727 46.1175 188.727 42.7441C188.727 39.2021 186.591 37.4592 182.262 37.4592H170.68V48.1415Z" fill="url(#paint6_linear_748_204)"/>
<path fill-rule="evenodd" clip-rule="evenodd" d="M105.961 27.0163L115.586 32.5732L104.078 61.3696C103.808 61.3328 103.529 61.3848 103.285 61.5256L92.448 67.7822L74.4962 60.2928V51.6335L105.961 27.0163ZM94.0035 20.1124L79.2351 11.5858C77.8821 10.8047 76.2153 10.8047 74.8624 11.5858L19.1863 43.7304C17.8334 44.5115 17 45.955 17 47.5172V68.6612L41.4964 57.8253V48.612C41.4964 48.1656 41.7345 47.7532 42.1211 47.53L57.3716 38.7251C57.7582 38.5019 58.2344 38.5019 58.621 38.7251L65.291 42.5761L94.0035 20.1124ZM17 91.1899V82.6638L46.2869 69.7088L57.3716 76.1086C57.7582 76.3318 58.2344 76.3318 58.621 76.1086L67.2314 71.1374L87.4096 79.5557V82.8162L69.8189 94.7902L61.4319 89.948C61.0454 89.7248 60.5691 89.7248 60.1826 89.948L44.9321 98.7529C44.8271 98.8135 44.7331 98.888 44.6518 98.9734L17 91.1899ZM17 104.493V111.806C17 113.369 17.8334 114.812 19.1863 115.593L52.1763 134.64L52.4896 122.89L44.9321 118.527C44.5455 118.303 44.3074 117.891 44.3074 117.445V112.18L17 104.493ZM122.795 122.589L79.2351 147.738C77.8821 148.519 76.2153 148.519 74.8624 147.738L64.7923 141.924L65.2401 125.133L76.6825 118.527C77.069 118.303 77.3071 117.891 77.3071 117.445V105.184L94.2166 93.6736L103.285 98.9091C103.671 99.1323 104.148 99.1323 104.534 98.9091L113.777 93.5727L137.097 108.704V111.79L122.795 122.589ZM137.097 93.4387L120.409 82.6109V71.4124C120.409 70.9661 120.171 70.5537 119.785 70.3305L115.318 67.7517L126.791 39.0425L134.911 43.7304C136.264 44.5115 137.097 45.955 137.097 47.5173V93.4387Z" fill="url(#paint7_linear_748_204)"/>
<defs>
<linearGradient id="paint0_linear_748_204" x1="225.698" y1="25.2812" x2="225.698" y2="129.281" gradientUnits="userSpaceOnUse">
<stop stop-color="#2A5EB4"/>
<stop offset="1" stop-color="#1D4A99"/>
</linearGradient>
<linearGradient id="paint1_linear_748_204" x1="225.698" y1="25.2812" x2="225.698" y2="129.281" gradientUnits="userSpaceOnUse">
<stop stop-color="#2A5EB4"/>
<stop offset="1" stop-color="#1D4A99"/>
</linearGradient>
<linearGradient id="paint2_linear_748_204" x1="225.698" y1="25.2814" x2="225.698" y2="129.281" gradientUnits="userSpaceOnUse">
<stop stop-color="#2A5EB4"/>
<stop offset="1" stop-color="#1D4A99"/>
</linearGradient>
<linearGradient id="paint3_linear_748_204" x1="225.698" y1="25.2816" x2="225.698" y2="129.282" gradientUnits="userSpaceOnUse">
<stop stop-color="#2A5EB4"/>
<stop offset="1" stop-color="#1D4A99"/>
</linearGradient>
<linearGradient id="paint4_linear_748_204" x1="225.698" y1="25.2812" x2="225.698" y2="129.281" gradientUnits="userSpaceOnUse">
<stop stop-color="#2A5EB4"/>
<stop offset="1" stop-color="#1D4A99"/>
</linearGradient>
<linearGradient id="paint5_linear_748_204" x1="225.698" y1="25.2813" x2="225.698" y2="129.281" gradientUnits="userSpaceOnUse">
<stop stop-color="#2A5EB4"/>
<stop offset="1" stop-color="#1D4A99"/>
</linearGradient>
<linearGradient id="paint6_linear_748_204" x1="225.698" y1="25.2814" x2="225.698" y2="129.281" gradientUnits="userSpaceOnUse">
<stop stop-color="#2A5EB4"/>
<stop offset="1" stop-color="#1D4A99"/>
</linearGradient>
<linearGradient id="paint7_linear_748_204" x1="77.0487" y1="10.3235" x2="77.0487" y2="149" gradientUnits="userSpaceOnUse">
<stop stop-color="#2A5EB3"/>
<stop offset="1" stop-color="#1F4C9B"/>
</linearGradient>
</defs>
</svg>
