<svg width="32" height="32" viewBox="0 0 32 32" fill="none" xmlns="http://www.w3.org/2000/svg">
<path fill-rule="evenodd" clip-rule="evenodd" d="M16 0.0407715C7.16274 0.0407715 0 7.20351 0 16.0408C0 23.1071 4.58521 29.1038 10.9414 31.2254C11.7392 31.3745 12.0373 30.8747 12.0373 30.4539C12.0373 30.0682 12.0197 28.8145 12.0197 27.4731C7.56603 28.4375 6.62795 25.5882 6.62795 25.5882C5.90027 23.7383 4.84822 23.2473 4.84822 23.2473C3.39288 22.2567 4.95342 22.2742 4.95342 22.2742C6.55781 22.3882 7.40822 23.9224 7.40822 23.9224C8.83726 26.3684 11.1518 25.6583 12.0636 25.255C12.2038 24.2205 12.6247 23.5191 13.0805 23.1158C9.52986 22.7126 5.7863 21.3361 5.7863 15.2079C5.7863 13.4632 6.40877 12.0342 7.43452 10.912C7.26795 10.5087 6.72438 8.87803 7.59233 6.67748C7.59233 6.67748 8.9337 6.24789 11.9934 8.31694C13.2734 7.96625 14.6411 7.78214 16 7.78214C17.3589 7.79091 18.7266 7.96625 20.0066 8.31694C23.0575 6.24789 24.3989 6.67748 24.3989 6.67748C25.2668 8.87803 24.7233 10.5087 24.5567 10.912C25.5825 12.0342 26.2049 13.4632 26.2049 15.2079C26.2049 21.3536 22.4614 22.7038 18.9019 23.0983C19.4718 23.598 19.989 24.5712 19.989 26.0616C19.989 28.2008 19.9715 29.9279 19.9715 30.4539C19.9715 30.8835 20.2608 31.3745 21.0674 31.2254C27.4236 29.1038 32 23.1158 32 16.0408C32 7.20351 24.8373 0.0407715 16 0.0407715Z" fill="#B2C5F0"/>
<path d="M6.05806 23.0107C6.02299 23.0896 5.90025 23.1159 5.78628 23.0633C5.67231 23.0107 5.60217 22.9055 5.64601 22.8266C5.68108 22.7476 5.80382 22.7213 5.91779 22.7739C6.03176 22.8266 6.1019 22.9318 6.05806 23.0107Z" fill="#B2C5F0"/>
<path d="M6.70687 23.7384C6.62796 23.8085 6.47892 23.7734 6.38248 23.6682C6.27728 23.5543 6.25974 23.4052 6.33865 23.3351C6.41755 23.2649 6.55783 23.3 6.66303 23.4052C6.76824 23.5192 6.78577 23.6682 6.70687 23.7384Z" fill="#B2C5F0"/>
<path d="M7.33809 24.6589C7.24165 24.7291 7.08385 24.6677 6.97864 24.5187C6.8822 24.3784 6.8822 24.203 6.97864 24.1329C7.07508 24.0628 7.23289 24.1241 7.33809 24.2644C7.4433 24.4134 7.4433 24.5888 7.33809 24.6589Z" fill="#B2C5F0"/>
<path d="M8.20603 25.5443C8.11836 25.6407 7.93425 25.6144 7.79398 25.4829C7.6537 25.3514 7.61863 25.1673 7.70631 25.0709C7.79398 24.9744 7.98686 25.0007 8.11836 25.1323C8.25864 25.2725 8.2937 25.4566 8.20603 25.5443Z" fill="#B2C5F0"/>
<path d="M9.39833 26.0616C9.36326 26.1843 9.17915 26.2457 8.99505 26.1931C8.81094 26.1405 8.69696 25.9914 8.73203 25.8687C8.7671 25.7459 8.95121 25.6846 9.13532 25.7372C9.31066 25.7898 9.4334 25.9388 9.39833 26.0616Z" fill="#B2C5F0"/>
<path d="M10.7047 26.1581C10.7135 26.2896 10.5556 26.4036 10.3628 26.4036C10.1699 26.4123 10.0209 26.2984 10.0121 26.1669C10.0121 26.0354 10.1611 25.9214 10.354 25.9214C10.5469 25.9214 10.7047 26.0266 10.7047 26.1581Z" fill="#B2C5F0"/>
<path d="M11.9233 25.9564C11.9496 26.0879 11.8181 26.2194 11.6252 26.2545C11.4411 26.2895 11.2658 26.2106 11.2482 26.0791C11.2219 25.9476 11.3622 25.8161 11.5463 25.781C11.7304 25.746 11.897 25.8249 11.9233 25.9564Z" fill="#B2C5F0"/>
</svg>
