<svg width="310" height="161" viewBox="0 0 310 161" fill="none" xmlns="http://www.w3.org/2000/svg">
<path d="M266.416 107.443C266.416 98.2788 273.219 91.6445 282.608 91.6445C292.503 91.6445 298.8 98.6162 298.8 107.668V110.029H274.624C274.905 113.909 278.11 116.383 283.058 116.383C286.656 116.383 289.242 115.033 292.222 111.941L297.394 117.114C293.796 120.993 289.355 123.129 283.114 123.129C272.713 123.129 266.416 116.889 266.416 107.443ZM274.737 104.182H290.704C290.31 100.64 287.218 98.3913 282.776 98.3913C278.279 98.3913 275.186 100.64 274.737 104.182Z" fill="url(#paint0_linear_748_230)"/>
<path d="M229.821 122.286V92.4879H237.861V95.299H237.974C240.448 92.9939 244.046 91.6445 248.038 91.6445C256.471 91.6445 262.318 97.2106 262.318 105.307V122.286H253.997V106.375C253.997 101.821 251.017 99.066 246.239 99.066C241.46 99.066 238.142 102.046 238.142 106.375V122.286H229.821Z" fill="url(#paint1_linear_748_230)"/>
<path d="M191.69 107.387C191.521 98.6724 198.998 91.4758 208.5 91.6445C218.227 91.6445 225.311 98.5599 225.311 107.387C225.311 116.214 218.227 123.129 208.5 123.129C198.998 123.298 191.521 116.102 191.69 107.387ZM216.99 107.387C216.99 102.496 213.616 98.9535 208.5 98.9535C203.384 98.9535 200.011 102.496 200.011 107.387C200.011 112.278 203.384 115.82 208.5 115.82C213.616 115.82 216.99 112.278 216.99 107.387Z" fill="url(#paint2_linear_748_230)"/>
<path d="M154.087 122.286V115.596L177.926 90.5765V90.4641H154.65V82.9302H189.733V89.6207L165.838 114.64V114.752H189.227V122.286H154.087Z" fill="url(#paint3_linear_748_230)"/>
<path d="M264.032 70.2865L249.302 40.4883H258.466L267.799 60.6161H267.912L277.245 40.4883H286.465L271.622 70.2865H264.032Z" fill="url(#paint4_linear_748_230)"/>
<path d="M216.781 55.3869C216.613 46.6724 224.09 39.4758 233.592 39.6445C243.318 39.6445 250.403 46.5599 250.403 55.3869C250.403 64.214 243.318 71.1294 233.592 71.1294C224.09 71.2981 216.613 64.1015 216.781 55.3869ZM242.082 55.3869C242.082 50.4955 238.708 46.9535 233.592 46.9535C228.476 46.9535 225.102 50.4955 225.102 55.3869C225.102 60.2783 228.476 63.8204 233.592 63.8204C238.708 63.8204 242.082 60.2783 242.082 55.3869Z" fill="url(#paint5_linear_748_230)"/>
<path d="M194.902 70.2862V40.488H202.717V43.3554H202.829C205.022 41.0502 207.945 39.9258 211.6 39.9258C213.118 39.9258 214.748 40.2069 216.491 40.7129L214.748 48.1906C213.23 47.797 211.825 47.5721 210.419 47.5721C205.865 47.5721 203.223 50.6082 203.223 56.6802V70.2862H194.902Z" fill="url(#paint6_linear_748_230)"/>
<path d="M155.999 70.2863V30.9302H176.689C185.066 30.9302 191.251 35.9902 191.251 43.8052C191.251 51.7889 185.235 56.6803 176.689 56.6803H164.601V70.2863H155.999ZM164.601 49.1464H176.183C180.006 49.1464 182.649 47.1224 182.649 43.749C182.649 40.207 180.512 38.4641 176.183 38.4641H164.601V49.1464Z" fill="url(#paint7_linear_748_230)"/>
<path fill-rule="evenodd" clip-rule="evenodd" d="M20.258 120.16L63.7862 145.291L63.7862 104.41L55.2506 99.4823L55.456 99.8379L20.258 120.16ZM78.4659 145.201L121.917 120.115L86.7962 99.8379L86.9946 99.4941L78.4659 104.418L78.4659 145.201ZM131.097 108.465L131.097 56.1663L95.7475 76.5756L95.7475 88.0552L131.097 108.465ZM125.676 42.3459L78.4659 15.0893L78.4659 56.0407L90.2107 62.8216L125.676 42.3459ZM63.7862 15L16.4992 42.3012L52.0483 62.8255L63.7862 56.0486L63.7862 15ZM11 56.0769L46.5183 76.5835L46.5183 88.0474L11 108.554L11 56.0769ZM59.324 73.4116L71.1329 66.5938L82.9417 73.4116L82.9417 87.0473L71.1329 93.8651L59.324 87.0473L59.324 73.4116Z" fill="url(#paint8_linear_748_230)"/>
<defs>
<linearGradient id="paint0_linear_748_230" x1="226.62" y1="26.2861" x2="226.62" y2="130.286" gradientUnits="userSpaceOnUse">
<stop stop-color="#2A5EB4"/>
<stop offset="1" stop-color="#1D4A99"/>
</linearGradient>
<linearGradient id="paint1_linear_748_230" x1="226.619" y1="26.2861" x2="226.619" y2="130.286" gradientUnits="userSpaceOnUse">
<stop stop-color="#2A5EB4"/>
<stop offset="1" stop-color="#1D4A99"/>
</linearGradient>
<linearGradient id="paint2_linear_748_230" x1="226.619" y1="26.286" x2="226.619" y2="130.286" gradientUnits="userSpaceOnUse">
<stop stop-color="#2A5EB4"/>
<stop offset="1" stop-color="#1D4A99"/>
</linearGradient>
<linearGradient id="paint3_linear_748_230" x1="226.619" y1="26.2863" x2="226.619" y2="130.286" gradientUnits="userSpaceOnUse">
<stop stop-color="#2A5EB4"/>
<stop offset="1" stop-color="#1D4A99"/>
</linearGradient>
<linearGradient id="paint4_linear_748_230" x1="226.619" y1="26.2865" x2="226.619" y2="130.286" gradientUnits="userSpaceOnUse">
<stop stop-color="#2A5EB4"/>
<stop offset="1" stop-color="#1D4A99"/>
</linearGradient>
<linearGradient id="paint5_linear_748_230" x1="226.619" y1="26.286" x2="226.619" y2="130.286" gradientUnits="userSpaceOnUse">
<stop stop-color="#2A5EB4"/>
<stop offset="1" stop-color="#1D4A99"/>
</linearGradient>
<linearGradient id="paint6_linear_748_230" x1="226.619" y1="26.2862" x2="226.619" y2="130.286" gradientUnits="userSpaceOnUse">
<stop stop-color="#2A5EB4"/>
<stop offset="1" stop-color="#1D4A99"/>
</linearGradient>
<linearGradient id="paint7_linear_748_230" x1="226.619" y1="26.2863" x2="226.619" y2="130.286" gradientUnits="userSpaceOnUse">
<stop stop-color="#2A5EB4"/>
<stop offset="1" stop-color="#1D4A99"/>
</linearGradient>
<linearGradient id="paint8_linear_748_230" x1="71.0487" y1="10.807" x2="71.0487" y2="149.484" gradientUnits="userSpaceOnUse">
<stop stop-color="#2A5EB3"/>
<stop offset="1" stop-color="#1F4C9B"/>
</linearGradient>
</defs>
</svg>
