<svg width="420" height="160" viewBox="0 0 420 160" fill="none" xmlns="http://www.w3.org/2000/svg">
<path d="M388.796 121.351V91.5525H396.611V94.4198H396.724C398.916 92.1147 401.84 90.9902 405.494 90.9902C407.012 90.9902 408.643 91.2714 410.386 91.7774L408.643 99.255C407.125 98.8615 405.719 98.6366 404.314 98.6366C399.76 98.6366 397.117 101.673 397.117 107.745V121.351H388.796Z" fill="url(#paint0_linear_748_267)"/>
<path d="M351.982 106.508C351.982 97.3433 358.785 90.709 368.174 90.709C378.069 90.709 384.366 97.6806 384.366 106.733V109.094H360.19C360.472 112.973 363.676 115.447 368.624 115.447C372.222 115.447 374.808 114.098 377.788 111.005L382.961 116.178C379.363 120.057 374.921 122.194 368.68 122.194C358.279 122.194 351.982 115.953 351.982 106.508ZM360.303 103.247H376.27C375.877 99.7047 372.784 97.4557 368.343 97.4557C363.845 97.4557 360.753 99.7047 360.303 103.247Z" fill="url(#paint1_linear_748_267)"/>
<path d="M315.839 127.76L321.799 122.812C324.891 126.467 327.477 127.704 331.806 127.704C336.473 127.704 339.902 124.724 339.902 120.676V118.54H339.79C337.71 120.845 334.28 122.138 330.176 122.138C321.18 122.306 313.984 115.335 314.152 106.452C314.152 97.7932 320.955 90.9902 329.895 90.9902C334.111 90.9902 337.71 92.2271 339.79 94.4761H339.902V91.5525H347.886V120.564C347.886 128.997 341.195 134.844 331.806 134.844C325.003 134.844 319.381 132.427 315.839 127.76ZM339.565 108.251V104.765C339.565 101.391 335.742 98.2992 331.469 98.2992C326.071 98.2992 322.473 101.56 322.473 106.452C322.473 111.68 325.79 114.829 331.132 114.829C335.798 114.829 339.565 111.905 339.565 108.251Z" fill="url(#paint2_linear_748_267)"/>
<path d="M281.218 113.311C281.218 107.745 284.929 104.877 294.318 103.584C299.772 102.853 301.402 102.066 301.402 100.548C301.402 98.5802 299.322 97.3995 296.117 97.3995C292.294 97.3995 289.427 99.4235 288.696 102.741L280.825 101.11C281.949 95.0382 288.19 90.709 295.892 90.709C304.607 90.709 310.004 95.1506 310.004 102.403V121.351H302.527V118.09H302.414C300.615 120.62 296.792 122.194 292.35 122.194C285.772 122.194 281.218 118.596 281.218 113.311ZM302.077 110.275V106.733H301.965C301.234 107.801 299.659 108.419 295.611 109.15C290.72 110.05 288.977 111.005 288.977 112.748C288.977 114.548 290.439 115.335 293.587 115.335C298.366 115.335 302.077 113.142 302.077 110.275Z" fill="url(#paint3_linear_748_267)"/>
<path d="M244.231 121.351V91.5523H252.27V94.3635H252.383C254.857 92.0583 258.455 90.709 262.447 90.709C270.88 90.709 276.727 96.2751 276.727 104.371V121.351H268.406V105.439C268.406 100.885 265.427 98.1304 260.648 98.1304C255.869 98.1304 252.552 101.11 252.552 105.439V121.351H244.231Z" fill="url(#paint4_linear_748_267)"/>
<path d="M210.116 113.311C210.116 107.745 213.827 104.877 223.216 103.584C228.67 102.853 230.3 102.066 230.3 100.548C230.3 98.5802 228.22 97.3995 225.015 97.3995C221.192 97.3995 218.325 99.4235 217.594 102.741L209.722 101.11C210.847 95.0382 217.088 90.709 224.79 90.709C233.505 90.709 238.902 95.1506 238.902 102.403V121.351H231.424V118.09H231.312C229.513 120.62 225.69 122.194 221.248 122.194C214.67 122.194 210.116 118.596 210.116 113.311ZM230.975 110.275V106.733H230.862C230.131 107.801 228.557 108.419 224.509 109.15C219.618 110.05 217.875 111.005 217.875 112.748C217.875 114.548 219.337 115.335 222.485 115.335C227.264 115.335 230.975 113.142 230.975 110.275Z" fill="url(#paint5_linear_748_267)"/>
<path d="M156.078 121.351V81.9946H166.029L180.029 109.431H180.141L194.253 81.9946H204.148V121.351H195.603V95.5444H195.49L181.884 121.351H178.398L164.792 95.5444H164.68V121.351H156.078Z" fill="url(#paint6_linear_748_267)"/>
<path d="M320.8 46.6365H311.186V59.2304C311.186 61.0858 311.804 61.648 314.222 61.648H319.676V69.3506H313.379C305.901 69.3506 302.865 66.427 302.865 59.7364V46.6365H295.837V39.5524H302.865V32.0747H311.186V39.5524H320.8V46.6365Z" fill="url(#paint7_linear_748_267)"/>
<path d="M262.651 54.5076C262.651 45.3433 269.454 38.709 278.843 38.709C288.739 38.709 295.036 45.6806 295.036 54.7325V57.0939H270.86C271.141 60.9733 274.345 63.4471 279.293 63.4471C282.891 63.4471 285.478 62.0978 288.457 59.0055L293.63 64.178C290.032 68.0574 285.59 70.1939 279.349 70.1939C268.948 70.1939 262.651 63.9531 262.651 54.5076ZM270.972 51.2467H286.939C286.546 47.7047 283.454 45.4557 279.012 45.4557C274.514 45.4557 271.422 47.7047 270.972 51.2467Z" fill="url(#paint8_linear_748_267)"/>
<path d="M228.322 59.6802L236.137 57.8248C237.318 61.648 240.354 63.5596 245.133 63.5596C249.462 63.5596 251.936 62.6038 251.936 60.9733C251.936 59.2304 250.137 58.4433 244.571 57.5999C233.663 55.9132 229.784 53.2707 229.784 47.9296C229.784 42.4197 235.294 38.709 243.502 38.709C250.98 38.709 257.783 42.5321 259.357 47.7047L251.767 50.0098C250.643 47.1424 247.438 45.3433 243.446 45.3433C240.016 45.3433 237.768 46.3553 237.768 47.9296C237.768 49.5038 239.342 50.066 245.92 51.1905C255.984 52.7647 259.976 55.5197 259.976 60.9171C259.976 66.4831 254.016 70.1939 245.077 70.1939C240.691 70.1939 236.98 69.2381 233.944 67.3265C230.908 65.4711 229.053 62.8849 228.322 59.6802Z" fill="url(#paint9_linear_748_267)"/>
<path d="M195.049 59.6802L202.864 57.8248C204.045 61.648 207.081 63.5596 211.86 63.5596C216.189 63.5596 218.663 62.6038 218.663 60.9733C218.663 59.2304 216.864 58.4433 211.298 57.5999C200.391 55.9132 196.511 53.2707 196.511 47.9296C196.511 42.4197 202.021 38.709 210.23 38.709C217.707 38.709 224.51 42.5321 226.085 47.7047L218.494 50.0098C217.37 47.1424 214.165 45.3433 210.173 45.3433C206.744 45.3433 204.495 46.3553 204.495 47.9296C204.495 49.5038 206.069 50.066 212.647 51.1905C222.711 52.7647 226.703 55.5197 226.703 60.9171C226.703 66.4831 220.743 70.1939 211.804 70.1939C207.419 70.1939 203.708 69.2381 200.672 67.3265C197.636 65.4711 195.78 62.8849 195.049 59.6802Z" fill="url(#paint10_linear_748_267)"/>
<path d="M186.101 69.3507L183.515 63.2786H163.78L161.194 69.3507H151.917L169.627 29.9946H177.667L195.434 69.3507H186.101ZM166.985 55.7448H180.366L173.732 40.0585H173.619L166.985 55.7448Z" fill="url(#paint11_linear_748_267)"/>
<path fill-rule="evenodd" clip-rule="evenodd" d="M73.2351 11.5858C71.8821 10.8047 70.2153 10.8047 68.8624 11.5858L13.1863 43.7304C11.8334 44.5115 11 45.955 11 47.5172V111.806C11 113.369 11.8334 114.812 13.1863 115.593L68.8624 147.738C70.2153 148.519 71.8821 148.519 73.2351 147.738L128.911 115.593C130.264 114.812 131.097 113.369 131.097 111.806V47.5173C131.097 45.955 130.264 44.5115 128.911 43.7304L73.2351 11.5858ZM71.0487 48.8477L44.3629 64.2547V95.0688L71.0487 110.476L97.7345 95.0688V64.2547L71.0487 48.8477ZM71.6734 34.4216C71.2868 34.1984 70.8106 34.1984 70.4241 34.4216L32.1819 56.5007C31.7954 56.7239 31.5572 57.1363 31.5572 57.5826V101.741C31.5572 102.187 31.7954 102.6 32.1819 102.823L70.4241 124.902C70.8106 125.125 71.2868 125.125 71.6734 124.902L109.916 102.823C110.302 102.6 110.54 102.187 110.54 101.741V57.5826C110.54 57.1363 110.302 56.7239 109.916 56.5007L71.6734 34.4216ZM71.6733 65.9675C71.2868 65.7443 70.8106 65.7443 70.424 65.9675L59.5013 72.2737C59.1148 72.4969 58.8766 72.9093 58.8766 73.3556V85.9681C58.8766 86.4144 59.1148 86.8269 59.5013 87.05L70.424 93.3563C70.8106 93.5794 71.2868 93.5794 71.6733 93.3563L82.596 87.05C82.9826 86.8269 83.2207 86.4144 83.2207 85.9681V73.3556C83.2207 72.9093 82.9826 72.4969 82.596 72.2737L71.6733 65.9675Z" fill="url(#paint12_linear_748_267)"/>
<defs>
<linearGradient id="paint0_linear_748_267" x1="281.698" y1="25.3507" x2="281.698" y2="129.351" gradientUnits="userSpaceOnUse">
<stop stop-color="#2A5EB4"/>
<stop offset="1" stop-color="#1D4A99"/>
</linearGradient>
<linearGradient id="paint1_linear_748_267" x1="281.698" y1="25.3505" x2="281.698" y2="129.351" gradientUnits="userSpaceOnUse">
<stop stop-color="#2A5EB4"/>
<stop offset="1" stop-color="#1D4A99"/>
</linearGradient>
<linearGradient id="paint2_linear_748_267" x1="281.698" y1="25.3507" x2="281.698" y2="129.351" gradientUnits="userSpaceOnUse">
<stop stop-color="#2A5EB4"/>
<stop offset="1" stop-color="#1D4A99"/>
</linearGradient>
<linearGradient id="paint3_linear_748_267" x1="281.698" y1="25.3505" x2="281.698" y2="129.351" gradientUnits="userSpaceOnUse">
<stop stop-color="#2A5EB4"/>
<stop offset="1" stop-color="#1D4A99"/>
</linearGradient>
<linearGradient id="paint4_linear_748_267" x1="281.698" y1="25.3505" x2="281.698" y2="129.351" gradientUnits="userSpaceOnUse">
<stop stop-color="#2A5EB4"/>
<stop offset="1" stop-color="#1D4A99"/>
</linearGradient>
<linearGradient id="paint5_linear_748_267" x1="281.698" y1="25.3505" x2="281.698" y2="129.351" gradientUnits="userSpaceOnUse">
<stop stop-color="#2A5EB4"/>
<stop offset="1" stop-color="#1D4A99"/>
</linearGradient>
<linearGradient id="paint6_linear_748_267" x1="281.698" y1="25.3507" x2="281.698" y2="129.351" gradientUnits="userSpaceOnUse">
<stop stop-color="#2A5EB4"/>
<stop offset="1" stop-color="#1D4A99"/>
</linearGradient>
<linearGradient id="paint7_linear_748_267" x1="281.698" y1="25.3506" x2="281.698" y2="129.351" gradientUnits="userSpaceOnUse">
<stop stop-color="#2A5EB4"/>
<stop offset="1" stop-color="#1D4A99"/>
</linearGradient>
<linearGradient id="paint8_linear_748_267" x1="281.698" y1="25.3505" x2="281.698" y2="129.351" gradientUnits="userSpaceOnUse">
<stop stop-color="#2A5EB4"/>
<stop offset="1" stop-color="#1D4A99"/>
</linearGradient>
<linearGradient id="paint9_linear_748_267" x1="281.698" y1="25.3505" x2="281.698" y2="129.351" gradientUnits="userSpaceOnUse">
<stop stop-color="#2A5EB4"/>
<stop offset="1" stop-color="#1D4A99"/>
</linearGradient>
<linearGradient id="paint10_linear_748_267" x1="281.698" y1="25.3505" x2="281.698" y2="129.351" gradientUnits="userSpaceOnUse">
<stop stop-color="#2A5EB4"/>
<stop offset="1" stop-color="#1D4A99"/>
</linearGradient>
<linearGradient id="paint11_linear_748_267" x1="281.698" y1="25.3507" x2="281.698" y2="129.351" gradientUnits="userSpaceOnUse">
<stop stop-color="#2A5EB4"/>
<stop offset="1" stop-color="#1D4A99"/>
</linearGradient>
<linearGradient id="paint12_linear_748_267" x1="71.0487" y1="10.3235" x2="71.0487" y2="149" gradientUnits="userSpaceOnUse">
<stop stop-color="#2A5EB3"/>
<stop offset="1" stop-color="#1F4C9B"/>
</linearGradient>
</defs>
</svg>
